# xmcd
#
# Track frame offsets:
#	150
#	13565
#	30635
#	42100
#	53017
#	65085
#	75032
#	89045
#	103610
#	116977
#	128672
#	138410
#	150342
#	164070
#	175382
#	188245
#	197570
#	208575
#
# Disc length: 2930 seconds
#
# Revision: 1
# Processed by: cddbd v1.5.1PL0 Copyright (c) Steve Scherf et al.
# Submitted via: audiograbber 1.83.01
#
DISCID=f10b7012
DTITLE=Willie Nelson - Greatest Hits
DYEAR=2003
DGENRE=Country
TTITLE0=Fire And Rain
TTITLE1=Me And Paul
TTITLE2=Crazy Arms
TTITLE3=Night Life
TTITLE4=Funny How Time Slips Away
TTITLE5=Hello Walls
TTITLE6=If You Can Touch Her At All
TTITLE7=Yesterday's Wine
TTITLE8=Help Me Make It Through The Night
TTITLE9=One In A Row
TTITLE10=San Antonio Rose
TTITLE11=Once More With Feeling
TTITLE12=Good Hearted Woman
TTITLE13=Mamas Don't Let Your Babies Grow Up To Be Cowboys
TTITLE14=Just To Satisfy You
TTITLE15=Blackjack Country Chain
TTITLE16=Good Times
TTITLE17=I'm A Memory
EXTD=
EXTT0=
EXTT1=
EXTT2=
EXTT3=
EXTT4=
EXTT5=
EXTT6=
EXTT7=
EXTT8=
EXTT9=
EXTT10=
EXTT11=
EXTT12=
EXTT13=
EXTT14=
EXTT15=
EXTT16=
EXTT17=
PLAYORDER=
